<svg width="24" height="24" viewBox="0 0 24 24" fill="none" xmlns="http://www.w3.org/2000/svg">
<path d="M5.6543 11.9808C5.6543 10.8413 5.96826 9.77381 6.5137 8.85978V4.98267H2.63658C1.09778 6.98115 0.263672 9.41677 0.263672 11.9808C0.263672 14.5449 1.09778 16.9805 2.63658 18.979H6.5137V15.1019C5.96826 14.1878 5.6543 13.1204 5.6543 11.9808Z" fill="#FBBD00"/>
<path d="M11.7637 18.0901L9.06836 20.7854L11.7637 23.4808C14.3278 23.4808 16.7633 22.6466 18.7618 21.1078V17.2349H14.8888C13.9668 17.7823 12.8949 18.0901 11.7637 18.0901Z" fill="#0F9D58"/>
<path d="M6.51384 15.1013L2.63672 18.9784C2.94138 19.3741 3.27313 19.753 3.6321 20.112C5.80416 22.2841 8.69205 23.4803 11.7638 23.4803V18.0897C9.53461 18.0897 7.58082 16.8893 6.51384 15.1013Z" fill="#31AA52"/>
<path d="M23.2637 11.9806C23.2637 11.2809 23.2003 10.5799 23.0754 9.89722L22.9742 9.34473H11.7637V14.7354H17.2195C16.6897 15.7893 15.8751 16.6491 14.8888 17.2347L18.7618 21.1077C19.1575 20.803 19.5364 20.4713 19.8954 20.1123C22.0675 17.9402 23.2637 15.0523 23.2637 11.9806Z" fill="#3C79E6"/>
<path d="M16.0837 7.66071L16.5601 8.13715L20.3719 4.32544L19.8954 3.849C17.7234 1.67694 14.8355 0.480713 11.7637 0.480713L9.06836 3.17603L11.7637 5.87134C13.3955 5.87134 14.9297 6.5068 16.0837 7.66071Z" fill="#CF2D48"/>
<path d="M11.7639 5.87134V0.480713C8.6921 0.480713 5.80421 1.67694 3.6321 3.84896C3.27313 4.20793 2.94138 4.58684 2.63672 4.98256L6.51384 8.85968C7.58087 7.07165 9.53466 5.87134 11.7639 5.87134Z" fill="#EB4132"/>
</svg>
